<svg class="main-svg" xmlns="http://www.w3.org/2000/svg" xmlns:xlink="http://www.w3.org/1999/xlink" width="979" height="406" viewBox="0 0 979 406"><rect x="0" y="0" width="979" height="406" style="fill: rgb(255, 255, 255); fill-opacity: 1;"/><defs id="defs-5a3497"><g class="clips"><clipPath id="clip5a3497xyplot" class="plotclip"><rect width="819" height="226"/></clipPath><clipPath class="axesclip" id="clip5a3497x"><rect x="80" y="0" width="819" height="406"/></clipPath><clipPath class="axesclip" id="clip5a3497y"><rect x="0" y="100" width="979" height="226"/></clipPath><clipPath class="axesclip" id="clip5a3497xy"><rect x="80" y="100" width="819" height="226"/></clipPath></g><g class="gradients"/></defs><g class="bglayer"/><g class="layer-below"><g class="imagelayer"/><g class="shapelayer"/></g><g class="cartesianlayer"><g class="subplot xy"><g class="layer-subplot"><g class="shapelayer"/><g class="imagelayer"/></g><g class="gridlayer"><g class="x"/><g class="y"/></g><g class="zerolinelayer"/><path class="xlines-below"/><path class="ylines-below"/><g class="overlines-below"/><g class="xaxislayer-below"/><g class="yaxislayer-below"/><g class="overaxes-below"/><g class="plot" transform="translate(80, 100)" clip-path="url(#clip5a3497xyplot)"><g class="scatterlayer mlayer"><g class="trace scatter trace335f6597-be34-41b5-905b-f6e378ef668f" style="stroke-miterlimit: 2; opacity: 1;"><g class="fills"/><g class="errorbars"/><g class="lines"><path class="js-line" d="M44.7,202.07L135.9,210.95L227.1,166.53L318.3,162.09L409.5,135.43L500.7,157.64L591.9,122.11L683.1,91.01L774.3,15.05" style="vector-effect: non-scaling-stroke; fill: none; stroke: rgb(162, 213, 242); stroke-opacity: 1; stroke-width: 2px; opacity: 1;"/></g><g class="points"><path class="point" transform="translate(44.7,202.07)" d="M3,0A3,3 0 1,1 0,-3A3,3 0 0,1 3,0Z" style="opacity: 1; stroke-width: 0px; fill: rgb(162, 213, 242); fill-opacity: 1;"/><path class="point" transform="translate(135.9,210.95)" d="M3,0A3,3 0 1,1 0,-3A3,3 0 0,1 3,0Z" style="opacity: 1; stroke-width: 0px; fill: rgb(162, 213, 242); fill-opacity: 1;"/><path class="point" transform="translate(227.1,166.53)" d="M3,0A3,3 0 1,1 0,-3A3,3 0 0,1 3,0Z" style="opacity: 1; stroke-width: 0px; fill: rgb(162, 213, 242); fill-opacity: 1;"/><path class="point" transform="translate(318.3,162.09)" d="M3,0A3,3 0 1,1 0,-3A3,3 0 0,1 3,0Z" style="opacity: 1; stroke-width: 0px; fill: rgb(162, 213, 242); fill-opacity: 1;"/><path class="point" transform="translate(409.5,135.43)" d="M3,0A3,3 0 1,1 0,-3A3,3 0 0,1 3,0Z" style="opacity: 1; stroke-width: 0px; fill: rgb(162, 213, 242); fill-opacity: 1;"/><path class="point" transform="translate(500.7,157.64)" d="M3,0A3,3 0 1,1 0,-3A3,3 0 0,1 3,0Z" style="opacity: 1; stroke-width: 0px; fill: rgb(162, 213, 242); fill-opacity: 1;"/><path class="point" transform="translate(591.9,122.11)" d="M3,0A3,3 0 1,1 0,-3A3,3 0 0,1 3,0Z" style="opacity: 1; stroke-width: 0px; fill: rgb(162, 213, 242); fill-opacity: 1;"/><path class="point" transform="translate(683.1,91.01)" d="M3,0A3,3 0 1,1 0,-3A3,3 0 0,1 3,0Z" style="opacity: 1; stroke-width: 0px; fill: rgb(162, 213, 242); fill-opacity: 1;"/><path class="point" transform="translate(774.3,15.05)" d="M3,0A3,3 0 1,1 0,-3A3,3 0 0,1 3,0Z" style="opacity: 1; stroke-width: 0px; fill: rgb(162, 213, 242); fill-opacity: 1;"/></g><g class="text"/></g></g></g><g class="overplot"/><path class="xlines-above crisp" d="M0,0" style="fill: none;"/><path class="ylines-above crisp" d="M0,0" style="fill: none;"/><g class="overlines-above"/><g class="xaxislayer-above"><g class="xtick"><text text-anchor="middle" x="0" y="339" transform="translate(124.7,0)" style="font-family: 'Open Sans', verdana, arial, sans-serif; font-size: 12px; fill: rgb(112, 108, 135); fill-opacity: 1; white-space: pre;">Dec 16</text></g><g class="xtick"><text text-anchor="middle" x="0" y="339" transform="translate(215.9,0)" style="font-family: 'Open Sans', verdana, arial, sans-serif; font-size: 12px; fill: rgb(112, 108, 135); fill-opacity: 1; white-space: pre;">Mar 17</text></g><g class="xtick"><text text-anchor="middle" x="0" y="339" transform="translate(307.1,0)" style="font-family: 'Open Sans', verdana, arial, sans-serif; font-size: 12px; fill: rgb(112, 108, 135); fill-opacity: 1; white-space: pre;">Jun 17</text></g><g class="xtick"><text text-anchor="middle" x="0" y="339" transform="translate(398.3,0)" style="font-family: 'Open Sans', verdana, arial, sans-serif; font-size: 12px; fill: rgb(112, 108, 135); fill-opacity: 1; white-space: pre;">Sep 17</text></g><g class="xtick"><text text-anchor="middle" x="0" y="339" transform="translate(489.5,0)" style="font-family: 'Open Sans', verdana, arial, sans-serif; font-size: 12px; fill: rgb(112, 108, 135); fill-opacity: 1; white-space: pre;">Dec 17</text></g><g class="xtick"><text text-anchor="middle" x="0" y="339" transform="translate(580.7,0)" style="font-family: 'Open Sans', verdana, arial, sans-serif; font-size: 12px; fill: rgb(112, 108, 135); fill-opacity: 1; white-space: pre;">Mar 18</text></g><g class="xtick"><text text-anchor="middle" x="0" y="339" transform="translate(671.9,0)" style="font-family: 'Open Sans', verdana, arial, sans-serif; font-size: 12px; fill: rgb(112, 108, 135); fill-opacity: 1; white-space: pre;">Jun 18</text></g><g class="xtick"><text text-anchor="middle" x="0" y="339" transform="translate(763.1,0)" style="font-family: 'Open Sans', verdana, arial, sans-serif; font-size: 12px; fill: rgb(112, 108, 135); fill-opacity: 1; white-space: pre;">Sep 18</text></g><g class="xtick"><text text-anchor="middle" x="0" y="339" transform="translate(854.3,0)" style="font-family: 'Open Sans', verdana, arial, sans-serif; font-size: 12px; fill: rgb(112, 108, 135); fill-opacity: 1; white-space: pre;">Dec 18</text></g></g><g class="yaxislayer-above"><g class="ytick"><text text-anchor="end" x="79" y="4.199999999999999" transform="translate(0,302.07)" style="font-family: 'Open Sans', verdana, arial, sans-serif; font-size: 12px; fill: rgb(112, 108, 135); fill-opacity: 1; white-space: pre;">600</text></g><g class="ytick"><text text-anchor="end" x="79" y="4.199999999999999" transform="translate(0,257.64)" style="font-family: 'Open Sans', verdana, arial, sans-serif; font-size: 12px; fill: rgb(112, 108, 135); fill-opacity: 1; white-space: pre;">700</text></g><g class="ytick"><text text-anchor="end" x="79" y="4.199999999999999" transform="translate(0,213.22)" style="font-family: 'Open Sans', verdana, arial, sans-serif; font-size: 12px; fill: rgb(112, 108, 135); fill-opacity: 1; white-space: pre;">800</text></g><g class="ytick"><text text-anchor="end" x="79" y="4.199999999999999" transform="translate(0,168.8)" style="font-family: 'Open Sans', verdana, arial, sans-serif; font-size: 12px; fill: rgb(112, 108, 135); fill-opacity: 1; white-space: pre;">900</text></g><g class="ytick"><text text-anchor="end" x="79" y="4.199999999999999" transform="translate(0,124.38)" style="font-family: 'Open Sans', verdana, arial, sans-serif; font-size: 12px; fill: rgb(112, 108, 135); fill-opacity: 1; white-space: pre;">1000</text></g></g><g class="overaxes-above"/></g></g><g class="polarlayer"/><g class="ternarylayer"/><g class="geolayer"/><g class="pielayer"/><g class="glimages"/><defs id="topdefs-5a3497"><g class="clips"/></defs><g class="layer-above"><g class="imagelayer"/><g class="shapelayer"/></g><g class="infolayer"><g class="g-gtitle"><text class="gtitle" x="489.5" y="50" text-anchor="middle" dy="0em" style="font-family: 'Open Sans', verdana, arial, sans-serif; font-size: 17px; fill: rgb(112, 108, 135); opacity: 1; font-weight: normal; white-space: pre;">Number of Job Postings (per 1 million)</text></g><g class="g-xtitle"/><g class="g-ytitle"/></g></svg>