<svg class="main-svg" xmlns="http://www.w3.org/2000/svg" xmlns:xlink="http://www.w3.org/1999/xlink" width="900" height="600" viewBox="0 0 900 600"><rect x="0" y="0" width="900" height="600" style="fill: rgb(255, 255, 255); fill-opacity: 1;"/><defs id="defs-9314b1"><g class="clips"><clipPath id="clip9314b1xyplot" class="plotclip"><rect width="740" height="420"/></clipPath><clipPath class="axesclip" id="clip9314b1x"><rect x="80" y="0" width="740" height="600"/></clipPath><clipPath class="axesclip" id="clip9314b1y"><rect x="0" y="100" width="900" height="420"/></clipPath><clipPath class="axesclip" id="clip9314b1xy"><rect x="80" y="100" width="740" height="420"/></clipPath></g><g class="gradients"/></defs><g class="bglayer"/><g class="layer-below"><g class="imagelayer"/><g class="shapelayer"/></g><g class="cartesianlayer"><g class="subplot xy"><g class="layer-subplot"><g class="shapelayer"/><g class="imagelayer"/></g><g class="gridlayer"><g class="x"/><g class="y"/></g><g class="zerolinelayer"><path class="xzl zl crisp" transform="translate(113.78,0)" d="M0,100v420" style="stroke: rgb(51, 46, 86); stroke-opacity: 0.8; stroke-width: 4px;"/><path class="yzl zl crisp" transform="translate(0,503.31)" d="M80,0h740" style="stroke: rgb(51, 46, 86); stroke-opacity: 0.8; stroke-width: 4px;"/></g><path class="xlines-below"/><path class="ylines-below"/><g class="overlines-below"/><g class="xaxislayer-below"/><g class="yaxislayer-below"/><g class="overaxes-below"/><g class="plot" transform="translate(80, 100)" clip-path="url(#clip9314b1xyplot)"><g class="scatterlayer mlayer"><g class="trace scatter trace6b31e8c9-caca-4025-9026-fd7934a9219f" style="stroke-miterlimit: 2; opacity: 1;"><g class="fills"/><g class="errorbars"/><g class="lines"/><g class="points"><path class="point" transform="translate(602.04,167.56)" d="M5,0A5,5 0 1,1 0,-5A5,5 0 0,1 5,0Z" style="opacity: 0.46; stroke-width: 0px; fill: rgb(51, 46, 86); fill-opacity: 1;"/><path class="point" transform="translate(602.04,177.55)" d="M5,0A5,5 0 1,1 0,-5A5,5 0 0,1 5,0Z" style="opacity: 0.46; stroke-width: 0px; fill: rgb(51, 46, 86); fill-opacity: 1;"/><path class="point" transform="translate(554.68,246.89)" d="M5,0A5,5 0 1,1 0,-5A5,5 0 0,1 5,0Z" style="opacity: 0.46; stroke-width: 0px; fill: rgb(51, 46, 86); fill-opacity: 1;"/><path class="point" transform="translate(507.33,130.9)" d="M5,0A5,5 0 1,1 0,-5A5,5 0 0,1 5,0Z" style="opacity: 0.46; stroke-width: 0px; fill: rgb(51, 46, 86); fill-opacity: 1;"/><path class="point" transform="translate(469.45,232.68)" d="M5,0A5,5 0 1,1 0,-5A5,5 0 0,1 5,0Z" style="opacity: 0.46; stroke-width: 0px; fill: rgb(51, 46, 86); fill-opacity: 1;"/><path class="point" transform="translate(459.97,229.61)" d="M5,0A5,5 0 1,1 0,-5A5,5 0 0,1 5,0Z" style="opacity: 0.46; stroke-width: 0px; fill: rgb(51, 46, 86); fill-opacity: 1;"/><path class="point" transform="translate(431.56,268.36)" d="M5,0A5,5 0 1,1 0,-5A5,5 0 0,1 5,0Z" style="opacity: 0.46; stroke-width: 0px; fill: rgb(51, 46, 86); fill-opacity: 1;"/><path class="point" transform="translate(412.62,64.65)" d="M5,0A5,5 0 1,1 0,-5A5,5 0 0,1 5,0Z" style="opacity: 0.46; stroke-width: 0px; fill: rgb(51, 46, 86); fill-opacity: 1;"/><path class="point" transform="translate(403.15,100.19)" d="M5,0A5,5 0 1,1 0,-5A5,5 0 0,1 5,0Z" style="opacity: 0.46; stroke-width: 0px; fill: rgb(51, 46, 86); fill-opacity: 1;"/><path class="point" transform="translate(388.94,105.05)" d="M5,0A5,5 0 1,1 0,-5A5,5 0 0,1 5,0Z" style="opacity: 0.46; stroke-width: 0px; fill: rgb(51, 46, 86); fill-opacity: 1;"/><path class="point" transform="translate(365.26,339.43)" d="M5,0A5,5 0 1,1 0,-5A5,5 0 0,1 5,0Z" style="opacity: 0.46; stroke-width: 0px; fill: rgb(51, 46, 86); fill-opacity: 1;"/><path class="point" transform="translate(365.26,152.67)" d="M5,0A5,5 0 1,1 0,-5A5,5 0 0,1 5,0Z" style="opacity: 0.46; stroke-width: 0px; fill: rgb(51, 46, 86); fill-opacity: 1;"/><path class="point" transform="translate(322.64,211.74)" d="M5,0A5,5 0 1,1 0,-5A5,5 0 0,1 5,0Z" style="opacity: 0.46; stroke-width: 0px; fill: rgb(51, 46, 86); fill-opacity: 1;"/><path class="point" transform="translate(317.91,286.76)" d="M5,0A5,5 0 1,1 0,-5A5,5 0 0,1 5,0Z" style="opacity: 0.46; stroke-width: 0px; fill: rgb(51, 46, 86); fill-opacity: 1;"/><path class="point" transform="translate(294.23,131.87)" d="M5,0A5,5 0 1,1 0,-5A5,5 0 0,1 5,0Z" style="opacity: 0.46; stroke-width: 0px; fill: rgb(51, 46, 86); fill-opacity: 1;"/><path class="point" transform="translate(270.55,354.03)" d="M5,0A5,5 0 1,1 0,-5A5,5 0 0,1 5,0Z" style="opacity: 0.46; stroke-width: 0px; fill: rgb(51, 46, 86); fill-opacity: 1;"/><path class="point" transform="translate(270.55,262.18)" d="M5,0A5,5 0 1,1 0,-5A5,5 0 0,1 5,0Z" style="opacity: 0.46; stroke-width: 0px; fill: rgb(51, 46, 86); fill-opacity: 1;"/><path class="point" transform="translate(251.61,248.76)" d="M5,0A5,5 0 1,1 0,-5A5,5 0 0,1 5,0Z" style="opacity: 0.46; stroke-width: 0px; fill: rgb(51, 46, 86); fill-opacity: 1;"/><path class="point" transform="translate(246.88,368.82)" d="M5,0A5,5 0 1,1 0,-5A5,5 0 0,1 5,0Z" style="opacity: 0.46; stroke-width: 0px; fill: rgb(51, 46, 86); fill-opacity: 1;"/><path class="point" transform="translate(223.2,162.57)" d="M5,0A5,5 0 1,1 0,-5A5,5 0 0,1 5,0Z" style="opacity: 0.46; stroke-width: 0px; fill: rgb(51, 46, 86); fill-opacity: 1;"/><path class="point" transform="translate(223.2,27.25)" d="M5,0A5,5 0 1,1 0,-5A5,5 0 0,1 5,0Z" style="opacity: 0.46; stroke-width: 0px; fill: rgb(51, 46, 86); fill-opacity: 1;"/><path class="point" transform="translate(223.2,258.86)" d="M5,0A5,5 0 1,1 0,-5A5,5 0 0,1 5,0Z" style="opacity: 0.46; stroke-width: 0px; fill: rgb(51, 46, 86); fill-opacity: 1;"/><path class="point" transform="translate(213.73,296.84)" d="M5,0A5,5 0 1,1 0,-5A5,5 0 0,1 5,0Z" style="opacity: 0.46; stroke-width: 0px; fill: rgb(51, 46, 86); fill-opacity: 1;"/><path class="point" transform="translate(213.73,335.04)" d="M5,0A5,5 0 1,1 0,-5A5,5 0 0,1 5,0Z" style="opacity: 0.46; stroke-width: 0px; fill: rgb(51, 46, 86); fill-opacity: 1;"/><path class="point" transform="translate(199.52,62.53)" d="M5,0A5,5 0 1,1 0,-5A5,5 0 0,1 5,0Z" style="opacity: 0.46; stroke-width: 0px; fill: rgb(51, 46, 86); fill-opacity: 1;"/><path class="point" transform="translate(199.52,358.68)" d="M5,0A5,5 0 1,1 0,-5A5,5 0 0,1 5,0Z" style="opacity: 0.46; stroke-width: 0px; fill: rgb(51, 46, 86); fill-opacity: 1;"/><path class="point" transform="translate(175.84,313.96)" d="M5,0A5,5 0 1,1 0,-5A5,5 0 0,1 5,0Z" style="opacity: 0.46; stroke-width: 0px; fill: rgb(51, 46, 86); fill-opacity: 1;"/><path class="point" transform="translate(175.84,392.75)" d="M5,0A5,5 0 1,1 0,-5A5,5 0 0,1 5,0Z" style="opacity: 0.46; stroke-width: 0px; fill: rgb(51, 46, 86); fill-opacity: 1;"/><path class="point" transform="translate(175.84,107.81)" d="M5,0A5,5 0 1,1 0,-5A5,5 0 0,1 5,0Z" style="opacity: 0.46; stroke-width: 0px; fill: rgb(51, 46, 86); fill-opacity: 1;"/><path class="point" transform="translate(175.84,354.37)" d="M5,0A5,5 0 1,1 0,-5A5,5 0 0,1 5,0Z" style="opacity: 0.46; stroke-width: 0px; fill: rgb(51, 46, 86); fill-opacity: 1;"/><path class="point" transform="translate(166.37,330.35)" d="M5,0A5,5 0 1,1 0,-5A5,5 0 0,1 5,0Z" style="opacity: 0.46; stroke-width: 0px; fill: rgb(51, 46, 86); fill-opacity: 1;"/><path class="point" transform="translate(166.37,241.38)" d="M5,0A5,5 0 1,1 0,-5A5,5 0 0,1 5,0Z" style="opacity: 0.46; stroke-width: 0px; fill: rgb(51, 46, 86); fill-opacity: 1;"/><path class="point" transform="translate(156.9,276.95)" d="M5,0A5,5 0 1,1 0,-5A5,5 0 0,1 5,0Z" style="opacity: 0.46; stroke-width: 0px; fill: rgb(51, 46, 86); fill-opacity: 1;"/><path class="point" transform="translate(152.17,308.79)" d="M5,0A5,5 0 1,1 0,-5A5,5 0 0,1 5,0Z" style="opacity: 0.46; stroke-width: 0px; fill: rgb(51, 46, 86); fill-opacity: 1;"/><path class="point" transform="translate(142.7,339.97)" d="M5,0A5,5 0 1,1 0,-5A5,5 0 0,1 5,0Z" style="opacity: 0.46; stroke-width: 0px; fill: rgb(51, 46, 86); fill-opacity: 1;"/><path class="point" transform="translate(128.49,268.76)" d="M5,0A5,5 0 1,1 0,-5A5,5 0 0,1 5,0Z" style="opacity: 0.46; stroke-width: 0px; fill: rgb(51, 46, 86); fill-opacity: 1;"/><path class="point" transform="translate(119.02,318.82)" d="M5,0A5,5 0 1,1 0,-5A5,5 0 0,1 5,0Z" style="opacity: 0.46; stroke-width: 0px; fill: rgb(51, 46, 86); fill-opacity: 1;"/><path class="point" transform="translate(114.28,265.89)" d="M5,0A5,5 0 1,1 0,-5A5,5 0 0,1 5,0Z" style="opacity: 0.46; stroke-width: 0px; fill: rgb(51, 46, 86); fill-opacity: 1;"/><path class="point" transform="translate(104.81,221.83)" d="M5,0A5,5 0 1,1 0,-5A5,5 0 0,1 5,0Z" style="opacity: 0.46; stroke-width: 0px; fill: rgb(51, 46, 86); fill-opacity: 1;"/><path class="point" transform="translate(104.81,380.06)" d="M5,0A5,5 0 1,1 0,-5A5,5 0 0,1 5,0Z" style="opacity: 0.46; stroke-width: 0px; fill: rgb(51, 46, 86); fill-opacity: 1;"/><path class="point" transform="translate(95.34,338.24)" d="M5,0A5,5 0 1,1 0,-5A5,5 0 0,1 5,0Z" style="opacity: 0.46; stroke-width: 0px; fill: rgb(51, 46, 86); fill-opacity: 1;"/><path class="point" transform="translate(95.34,357.69)" d="M5,0A5,5 0 1,1 0,-5A5,5 0 0,1 5,0Z" style="opacity: 0.46; stroke-width: 0px; fill: rgb(51, 46, 86); fill-opacity: 1;"/><path class="point" transform="translate(90.61,364.48)" d="M5,0A5,5 0 1,1 0,-5A5,5 0 0,1 5,0Z" style="opacity: 0.46; stroke-width: 0px; fill: rgb(51, 46, 86); fill-opacity: 1;"/><path class="point" transform="translate(90.61,359.02)" d="M5,0A5,5 0 1,1 0,-5A5,5 0 0,1 5,0Z" style="opacity: 0.46; stroke-width: 0px; fill: rgb(51, 46, 86); fill-opacity: 1;"/><path class="point" transform="translate(59.82,341.29)" d="M5,0A5,5 0 1,1 0,-5A5,5 0 0,1 5,0Z" style="opacity: 0.46; stroke-width: 0px; fill: rgb(51, 46, 86); fill-opacity: 1;"/><path class="point" transform="translate(57.46,191.54)" d="M5,0A5,5 0 1,1 0,-5A5,5 0 0,1 5,0Z" style="opacity: 0.46; stroke-width: 0px; fill: rgb(51, 46, 86); fill-opacity: 1;"/><path class="point" transform="translate(43.25,383.02)" d="M5,0A5,5 0 1,1 0,-5A5,5 0 0,1 5,0Z" style="opacity: 0.46; stroke-width: 0px; fill: rgb(51, 46, 86); fill-opacity: 1;"/><path class="point" transform="translate(696.75,92.89)" d="M5,0A5,5 0 1,1 0,-5A5,5 0 0,1 5,0Z" style="opacity: 0.46; stroke-width: 0px; fill: rgb(51, 46, 86); fill-opacity: 1;"/><path class="point" transform="translate(649.39,249.97)" d="M5,0A5,5 0 1,1 0,-5A5,5 0 0,1 5,0Z" style="opacity: 0.46; stroke-width: 0px; fill: rgb(51, 46, 86); fill-opacity: 1;"/><path class="point" transform="translate(649.39,318.13)" d="M5,0A5,5 0 1,1 0,-5A5,5 0 0,1 5,0Z" style="opacity: 0.46; stroke-width: 0px; fill: rgb(51, 46, 86); fill-opacity: 1;"/></g><g class="text"/></g><g class="trace scatter trace5f892f2f-e25b-477f-a9e9-d20245f001cf" style="stroke-miterlimit: 2; opacity: 1;"><g class="fills"/><g class="errorbars"/><g class="lines"><path class="js-line" d="M436.3,191.44L33.81,333.85L33.81,333.85" style="vector-effect: non-scaling-stroke; fill: none; stroke: rgb(252, 123, 101); stroke-opacity: 0.9; stroke-width: 5px; opacity: 1;"/></g><g class="points"/><g class="text"/></g></g></g><g class="overplot"/><path class="xlines-above crisp" d="M0,0" style="fill: none;"/><path class="ylines-above crisp" d="M0,0" style="fill: none;"/><g class="overlines-above"/><g class="xaxislayer-above"/><g class="yaxislayer-above"/><g class="overaxes-above"/></g></g><g class="polarlayer"/><g class="ternarylayer"/><g class="geolayer"/><g class="pielayer"/><g class="glimages"/><defs id="topdefs-9314b1"><g class="clips"/></defs><g class="layer-above"><g class="imagelayer"/><g class="shapelayer"/></g><g class="infolayer"><g class="g-gtitle"/><g class="g-xtitle"/><g class="g-ytitle"/></g></svg>