<svg class="main-svg" xmlns="http://www.w3.org/2000/svg" xmlns:xlink="http://www.w3.org/1999/xlink" width="1200" height="800" viewBox="0 0 1200 800"><rect x="0" y="0" width="1200" height="800" style="fill: rgb(255, 255, 255); fill-opacity: 1;"/><defs id="defs-8a9da6"><g class="clips"><clipPath id="clip8a9da6xyplot" class="plotclip"><rect width="1040" height="620"/></clipPath><clipPath class="axesclip" id="clip8a9da6x"><rect x="80" y="0" width="1040" height="800"/></clipPath><clipPath class="axesclip" id="clip8a9da6y"><rect x="0" y="100" width="1200" height="620"/></clipPath><clipPath class="axesclip" id="clip8a9da6xy"><rect x="80" y="100" width="1040" height="620"/></clipPath></g><g class="gradients"/></defs><g class="bglayer"/><g class="layer-below"><g class="imagelayer"/><g class="shapelayer"/></g><g class="cartesianlayer"><g class="subplot xy"><g class="layer-subplot"><g class="shapelayer"/><g class="imagelayer"/></g><g class="gridlayer"><g class="x"/><g class="y"/></g><g class="zerolinelayer"><path class="xzl zl crisp" transform="translate(124.89,0)" d="M0,100v620" style="stroke: rgb(51, 46, 86); stroke-opacity: 0.8; stroke-width: 4px;"/><path class="yzl zl crisp" transform="translate(0,698.51)" d="M80,0h1040" style="stroke: rgb(51, 46, 86); stroke-opacity: 0.8; stroke-width: 4px;"/></g><path class="xlines-below"/><path class="ylines-below"/><g class="overlines-below"/><g class="xaxislayer-below"/><g class="yaxislayer-below"/><g class="overaxes-below"/><g class="plot" transform="translate(80, 100)" clip-path="url(#clip8a9da6xyplot)"><g class="scatterlayer mlayer"><g class="trace scatter trace6b31e8c9-caca-4025-9026-fd7934a9219f" style="stroke-miterlimit: 2; opacity: 1;"><g class="fills"/><g class="errorbars"/><g class="lines"/><g class="points"><path class="point" transform="translate(131.71,501.4)" d="M5,0A5,5 0 1,1 0,-5A5,5 0 0,1 5,0Z" style="opacity: 0.46; stroke-width: 0px; fill: rgb(51, 46, 86); fill-opacity: 1;"/><path class="point" transform="translate(345.43,547.04)" d="M5,0A5,5 0 1,1 0,-5A5,5 0 0,1 5,0Z" style="opacity: 0.46; stroke-width: 0px; fill: rgb(51, 46, 86); fill-opacity: 1;"/><path class="point" transform="translate(178.46,397.7)" d="M5,0A5,5 0 1,1 0,-5A5,5 0 0,1 5,0Z" style="opacity: 0.46; stroke-width: 0px; fill: rgb(51, 46, 86); fill-opacity: 1;"/><path class="point" transform="translate(452.29,312.6)" d="M5,0A5,5 0 1,1 0,-5A5,5 0 0,1 5,0Z" style="opacity: 0.46; stroke-width: 0px; fill: rgb(51, 46, 86); fill-opacity: 1;"/><path class="point" transform="translate(312.04,239.21)" d="M5,0A5,5 0 1,1 0,-5A5,5 0 0,1 5,0Z" style="opacity: 0.46; stroke-width: 0px; fill: rgb(51, 46, 86); fill-opacity: 1;"/><path class="point" transform="translate(659.32,343.84)" d="M5,0A5,5 0 1,1 0,-5A5,5 0 0,1 5,0Z" style="opacity: 0.46; stroke-width: 0px; fill: rgb(51, 46, 86); fill-opacity: 1;"/><path class="point" transform="translate(125.04,540.56)" d="M5,0A5,5 0 1,1 0,-5A5,5 0 0,1 5,0Z" style="opacity: 0.46; stroke-width: 0px; fill: rgb(51, 46, 86); fill-opacity: 1;"/><path class="point" transform="translate(131.71,530.42)" d="M5,0A5,5 0 1,1 0,-5A5,5 0 0,1 5,0Z" style="opacity: 0.46; stroke-width: 0px; fill: rgb(51, 46, 86); fill-opacity: 1;"/><path class="point" transform="translate(913.11,369.66)" d="M5,0A5,5 0 1,1 0,-5A5,5 0 0,1 5,0Z" style="opacity: 0.46; stroke-width: 0px; fill: rgb(51, 46, 86); fill-opacity: 1;"/><path class="point" transform="translate(312.04,37.25)" d="M5,0A5,5 0 1,1 0,-5A5,5 0 0,1 5,0Z" style="opacity: 0.46; stroke-width: 0px; fill: rgb(51, 46, 86); fill-opacity: 1;"/><path class="point" transform="translate(211.86,457.45)" d="M5,0A5,5 0 1,1 0,-5A5,5 0 0,1 5,0Z" style="opacity: 0.46; stroke-width: 0px; fill: rgb(51, 46, 86); fill-opacity: 1;"/><path class="point" transform="translate(378.82,524.95)" d="M5,0A5,5 0 1,1 0,-5A5,5 0 0,1 5,0Z" style="opacity: 0.46; stroke-width: 0px; fill: rgb(51, 46, 86); fill-opacity: 1;"/><path class="point" transform="translate(165.11,472.42)" d="M5,0A5,5 0 1,1 0,-5A5,5 0 0,1 5,0Z" style="opacity: 0.46; stroke-width: 0px; fill: rgb(51, 46, 86); fill-opacity: 1;"/><path class="point" transform="translate(412.21,193.4)" d="M5,0A5,5 0 1,1 0,-5A5,5 0 0,1 5,0Z" style="opacity: 0.46; stroke-width: 0px; fill: rgb(51, 46, 86); fill-opacity: 1;"/><path class="point" transform="translate(245.25,465.16)" d="M5,0A5,5 0 1,1 0,-5A5,5 0 0,1 5,0Z" style="opacity: 0.46; stroke-width: 0px; fill: rgb(51, 46, 86); fill-opacity: 1;"/><path class="point" transform="translate(565.82,146.12)" d="M5,0A5,5 0 1,1 0,-5A5,5 0 0,1 5,0Z" style="opacity: 0.46; stroke-width: 0px; fill: rgb(51, 46, 86); fill-opacity: 1;"/><path class="point" transform="translate(81.63,505.95)" d="M5,0A5,5 0 1,1 0,-5A5,5 0 0,1 5,0Z" style="opacity: 0.46; stroke-width: 0px; fill: rgb(51, 46, 86); fill-opacity: 1;"/><path class="point" transform="translate(846.32,246.66)" d="M5,0A5,5 0 1,1 0,-5A5,5 0 0,1 5,0Z" style="opacity: 0.46; stroke-width: 0px; fill: rgb(51, 46, 86); fill-opacity: 1;"/><path class="point" transform="translate(779.54,365.06)" d="M5,0A5,5 0 1,1 0,-5A5,5 0 0,1 5,0Z" style="opacity: 0.46; stroke-width: 0px; fill: rgb(51, 46, 86); fill-opacity: 1;"/><path class="point" transform="translate(712.75,191.95)" d="M5,0A5,5 0 1,1 0,-5A5,5 0 0,1 5,0Z" style="opacity: 0.46; stroke-width: 0px; fill: rgb(51, 46, 86); fill-opacity: 1;"/><path class="point" transform="translate(312.04,382.93)" d="M5,0A5,5 0 1,1 0,-5A5,5 0 0,1 5,0Z" style="opacity: 0.46; stroke-width: 0px; fill: rgb(51, 46, 86); fill-opacity: 1;"/><path class="point" transform="translate(512.39,503.17)" d="M5,0A5,5 0 1,1 0,-5A5,5 0 0,1 5,0Z" style="opacity: 0.46; stroke-width: 0px; fill: rgb(51, 46, 86); fill-opacity: 1;"/><path class="point" transform="translate(158.43,393.41)" d="M5,0A5,5 0 1,1 0,-5A5,5 0 0,1 5,0Z" style="opacity: 0.46; stroke-width: 0px; fill: rgb(51, 46, 86); fill-opacity: 1;"/><path class="point" transform="translate(979.89,135.21)" d="M5,0A5,5 0 1,1 0,-5A5,5 0 0,1 5,0Z" style="opacity: 0.46; stroke-width: 0px; fill: rgb(51, 46, 86); fill-opacity: 1;"/><path class="point" transform="translate(445.61,424.57)" d="M5,0A5,5 0 1,1 0,-5A5,5 0 0,1 5,0Z" style="opacity: 0.46; stroke-width: 0px; fill: rgb(51, 46, 86); fill-opacity: 1;"/><path class="point" transform="translate(245.25,582.75)" d="M5,0A5,5 0 1,1 0,-5A5,5 0 0,1 5,0Z" style="opacity: 0.46; stroke-width: 0px; fill: rgb(51, 46, 86); fill-opacity: 1;"/><path class="point" transform="translate(579.18,93.07)" d="M5,0A5,5 0 1,1 0,-5A5,5 0 0,1 5,0Z" style="opacity: 0.46; stroke-width: 0px; fill: rgb(51, 46, 86); fill-opacity: 1;"/><path class="point" transform="translate(378.82,387.88)" d="M5,0A5,5 0 1,1 0,-5A5,5 0 0,1 5,0Z" style="opacity: 0.46; stroke-width: 0px; fill: rgb(51, 46, 86); fill-opacity: 1;"/><path class="point" transform="translate(198.5,503.98)" d="M5,0A5,5 0 1,1 0,-5A5,5 0 0,1 5,0Z" style="opacity: 0.46; stroke-width: 0px; fill: rgb(51, 46, 86); fill-opacity: 1;"/><path class="point" transform="translate(278.64,89.9)" d="M5,0A5,5 0 1,1 0,-5A5,5 0 0,1 5,0Z" style="opacity: 0.46; stroke-width: 0px; fill: rgb(51, 46, 86); fill-opacity: 1;"/><path class="point" transform="translate(78.29,282.44)" d="M5,0A5,5 0 1,1 0,-5A5,5 0 0,1 5,0Z" style="opacity: 0.46; stroke-width: 0px; fill: rgb(51, 46, 86); fill-opacity: 1;"/><path class="point" transform="translate(231.89,489.62)" d="M5,0A5,5 0 1,1 0,-5A5,5 0 0,1 5,0Z" style="opacity: 0.46; stroke-width: 0px; fill: rgb(51, 46, 86); fill-opacity: 1;"/><path class="point" transform="translate(231.89,356.83)" d="M5,0A5,5 0 1,1 0,-5A5,5 0 0,1 5,0Z" style="opacity: 0.46; stroke-width: 0px; fill: rgb(51, 46, 86); fill-opacity: 1;"/><path class="point" transform="translate(245.25,157.49)" d="M5,0A5,5 0 1,1 0,-5A5,5 0 0,1 5,0Z" style="opacity: 0.46; stroke-width: 0px; fill: rgb(51, 46, 86); fill-opacity: 1;"/><path class="point" transform="translate(58.25,568.23)" d="M5,0A5,5 0 1,1 0,-5A5,5 0 0,1 5,0Z" style="opacity: 0.46; stroke-width: 0px; fill: rgb(51, 46, 86); fill-opacity: 1;"/><path class="point" transform="translate(145.07,327.66)" d="M5,0A5,5 0 1,1 0,-5A5,5 0 0,1 5,0Z" style="opacity: 0.46; stroke-width: 0px; fill: rgb(51, 46, 86); fill-opacity: 1;"/><path class="point" transform="translate(125.04,532.4)" d="M5,0A5,5 0 1,1 0,-5A5,5 0 0,1 5,0Z" style="opacity: 0.46; stroke-width: 0px; fill: rgb(51, 46, 86); fill-opacity: 1;"/><path class="point" transform="translate(545.79,153.36)" d="M5,0A5,5 0 1,1 0,-5A5,5 0 0,1 5,0Z" style="opacity: 0.46; stroke-width: 0px; fill: rgb(51, 46, 86); fill-opacity: 1;"/><path class="point" transform="translate(846.32,261.57)" d="M5,0A5,5 0 1,1 0,-5A5,5 0 0,1 5,0Z" style="opacity: 0.46; stroke-width: 0px; fill: rgb(51, 46, 86); fill-opacity: 1;"/><path class="point" transform="translate(512.39,224.44)" d="M5,0A5,5 0 1,1 0,-5A5,5 0 0,1 5,0Z" style="opacity: 0.46; stroke-width: 0px; fill: rgb(51, 46, 86); fill-opacity: 1;"/><path class="point" transform="translate(218.54,409.92)" d="M5,0A5,5 0 1,1 0,-5A5,5 0 0,1 5,0Z" style="opacity: 0.46; stroke-width: 0px; fill: rgb(51, 46, 86); fill-opacity: 1;"/><path class="point" transform="translate(278.64,531.9)" d="M5,0A5,5 0 1,1 0,-5A5,5 0 0,1 5,0Z" style="opacity: 0.46; stroke-width: 0px; fill: rgb(51, 46, 86); fill-opacity: 1;"/><path class="point" transform="translate(145.07,563.81)" d="M5,0A5,5 0 1,1 0,-5A5,5 0 0,1 5,0Z" style="opacity: 0.46; stroke-width: 0px; fill: rgb(51, 46, 86); fill-opacity: 1;"/><path class="point" transform="translate(645.96,339.27)" d="M5,0A5,5 0 1,1 0,-5A5,5 0 0,1 5,0Z" style="opacity: 0.46; stroke-width: 0px; fill: rgb(51, 46, 86); fill-opacity: 1;"/><path class="point" transform="translate(352.11,367.84)" d="M5,0A5,5 0 1,1 0,-5A5,5 0 0,1 5,0Z" style="opacity: 0.46; stroke-width: 0px; fill: rgb(51, 46, 86); fill-opacity: 1;"/><path class="point" transform="translate(913.11,471.39)" d="M5,0A5,5 0 1,1 0,-5A5,5 0 0,1 5,0Z" style="opacity: 0.46; stroke-width: 0px; fill: rgb(51, 46, 86); fill-opacity: 1;"/><path class="point" transform="translate(605.89,397.11)" d="M5,0A5,5 0 1,1 0,-5A5,5 0 0,1 5,0Z" style="opacity: 0.46; stroke-width: 0px; fill: rgb(51, 46, 86); fill-opacity: 1;"/><path class="point" transform="translate(298.68,439.6)" d="M5,0A5,5 0 1,1 0,-5A5,5 0 0,1 5,0Z" style="opacity: 0.46; stroke-width: 0px; fill: rgb(51, 46, 86); fill-opacity: 1;"/><path class="point" transform="translate(245.25,525.47)" d="M5,0A5,5 0 1,1 0,-5A5,5 0 0,1 5,0Z" style="opacity: 0.46; stroke-width: 0px; fill: rgb(51, 46, 86); fill-opacity: 1;"/><path class="point" transform="translate(298.68,496.61)" d="M5,0A5,5 0 1,1 0,-5A5,5 0 0,1 5,0Z" style="opacity: 0.46; stroke-width: 0px; fill: rgb(51, 46, 86); fill-opacity: 1;"/></g><g class="text"/></g><g class="trace scatter trace5f892f2f-e25b-477f-a9e9-d20245f001cf" style="stroke-miterlimit: 2; opacity: 1;"><g class="fills"/><g class="errorbars"/><g class="lines"><path class="js-line" d="M131.71,462.36L1040,122.26L44.94,494.85L51.57,492.37" style="vector-effect: non-scaling-stroke; fill: none; stroke: rgb(252, 123, 101); stroke-opacity: 0.9; stroke-width: 8px; opacity: 1;"/></g><g class="points"/><g class="text"/></g></g></g><g class="overplot"/><path class="xlines-above crisp" d="M0,0" style="fill: none;"/><path class="ylines-above crisp" d="M0,0" style="fill: none;"/><g class="overlines-above"/><g class="xaxislayer-above"/><g class="yaxislayer-above"/><g class="overaxes-above"/></g></g><g class="polarlayer"/><g class="ternarylayer"/><g class="geolayer"/><g class="pielayer"/><g class="glimages"/><defs id="topdefs-8a9da6"><g class="clips"/></defs><g class="layer-above"><g class="imagelayer"/><g class="shapelayer"/></g><g class="infolayer"><g class="g-gtitle"/><g class="g-xtitle"/><g class="g-ytitle"/></g></svg>