<svg class="main-svg" xmlns="http://www.w3.org/2000/svg" xmlns:xlink="http://www.w3.org/1999/xlink" width="979" height="455" viewBox="0 0 979 455"><rect x="0" y="0" width="979" height="455" style="fill: rgb(255, 255, 255); fill-opacity: 1;"/><defs id="defs-a206be"><g class="clips"><clipPath id="clipa206bexyplot" class="plotclip"><rect width="689" height="275"/></clipPath><clipPath class="axesclip" id="clipa206bex"><rect x="80" y="0" width="689" height="455"/></clipPath><clipPath class="axesclip" id="clipa206bey"><rect x="0" y="100" width="979" height="275"/></clipPath><clipPath class="axesclip" id="clipa206bexy"><rect x="80" y="100" width="689" height="275"/></clipPath></g><g class="gradients"/></defs><g class="bglayer"/><g class="layer-below"><g class="imagelayer"/><g class="shapelayer"/></g><g class="cartesianlayer"><g class="subplot xy"><g class="layer-subplot"><g class="shapelayer"/><g class="imagelayer"/></g><g class="gridlayer"><g class="x"/><g class="y"/></g><g class="zerolinelayer"/><path class="xlines-below"/><path class="ylines-below"/><g class="overlines-below"/><g class="xaxislayer-below"/><g class="yaxislayer-below"/><g class="overaxes-below"/><g class="plot" transform="translate(80, 100)" clip-path="url(#clipa206bexyplot)"><g class="scatterlayer mlayer"><g class="trace scatter tracec20758d0-7ee9-4316-894e-779962cf11f9" style="stroke-miterlimit: 2;"><g class="fills"><g><path class="js-fill" d="M689,275L0,275L0,272.06L45.93,267.64L91.87,265.44L137.8,261.76L183.73,256.61L275.6,248.51L321.53,236.74L367.47,226.44L413.4,214.67L459.33,200.69L505.27,180.09L551.2,158.02L597.13,126.39L643.07,84.45L689,17.5" style="fill: rgb(162, 213, 242); fill-opacity: 0.5; stroke-width: 0;"/></g></g><g class="errorbars"/><g class="lines"><path class="js-line" d="M0,272.06L45.93,267.64L91.87,265.44L137.8,261.76L183.73,256.61L275.6,248.51L321.53,236.74L367.47,226.44L413.4,214.67L459.33,200.69L505.27,180.09L551.2,158.02L597.13,126.39L643.07,84.45L689,17.5" style="vector-effect: non-scaling-stroke; fill: none; stroke: rgb(162, 213, 242); stroke-opacity: 1; stroke-width: 2px; opacity: 1;"/></g><g class="points"><path class="point" transform="translate(0,272.06)" d="M3,0A3,3 0 1,1 0,-3A3,3 0 0,1 3,0Z" style="opacity: 1; stroke-width: 0px; fill: rgb(162, 213, 242); fill-opacity: 1;"/><path class="point" transform="translate(45.93,267.64)" d="M3,0A3,3 0 1,1 0,-3A3,3 0 0,1 3,0Z" style="opacity: 1; stroke-width: 0px; fill: rgb(162, 213, 242); fill-opacity: 1;"/><path class="point" transform="translate(91.87,265.44)" d="M3,0A3,3 0 1,1 0,-3A3,3 0 0,1 3,0Z" style="opacity: 1; stroke-width: 0px; fill: rgb(162, 213, 242); fill-opacity: 1;"/><path class="point" transform="translate(137.8,261.76)" d="M3,0A3,3 0 1,1 0,-3A3,3 0 0,1 3,0Z" style="opacity: 1; stroke-width: 0px; fill: rgb(162, 213, 242); fill-opacity: 1;"/><path class="point" transform="translate(183.73,256.61)" d="M3,0A3,3 0 1,1 0,-3A3,3 0 0,1 3,0Z" style="opacity: 1; stroke-width: 0px; fill: rgb(162, 213, 242); fill-opacity: 1;"/><path class="point" transform="translate(229.67,252.19)" d="M3,0A3,3 0 1,1 0,-3A3,3 0 0,1 3,0Z" style="opacity: 1; stroke-width: 0px; fill: rgb(162, 213, 242); fill-opacity: 1;"/><path class="point" transform="translate(275.6,248.51)" d="M3,0A3,3 0 1,1 0,-3A3,3 0 0,1 3,0Z" style="opacity: 1; stroke-width: 0px; fill: rgb(162, 213, 242); fill-opacity: 1;"/><path class="point" transform="translate(321.53,236.74)" d="M3,0A3,3 0 1,1 0,-3A3,3 0 0,1 3,0Z" style="opacity: 1; stroke-width: 0px; fill: rgb(162, 213, 242); fill-opacity: 1;"/><path class="point" transform="translate(367.47,226.44)" d="M3,0A3,3 0 1,1 0,-3A3,3 0 0,1 3,0Z" style="opacity: 1; stroke-width: 0px; fill: rgb(162, 213, 242); fill-opacity: 1;"/><path class="point" transform="translate(413.4,214.67)" d="M3,0A3,3 0 1,1 0,-3A3,3 0 0,1 3,0Z" style="opacity: 1; stroke-width: 0px; fill: rgb(162, 213, 242); fill-opacity: 1;"/><path class="point" transform="translate(459.33,200.69)" d="M3,0A3,3 0 1,1 0,-3A3,3 0 0,1 3,0Z" style="opacity: 1; stroke-width: 0px; fill: rgb(162, 213, 242); fill-opacity: 1;"/><path class="point" transform="translate(505.27,180.09)" d="M3,0A3,3 0 1,1 0,-3A3,3 0 0,1 3,0Z" style="opacity: 1; stroke-width: 0px; fill: rgb(162, 213, 242); fill-opacity: 1;"/><path class="point" transform="translate(551.2,158.02)" d="M3,0A3,3 0 1,1 0,-3A3,3 0 0,1 3,0Z" style="opacity: 1; stroke-width: 0px; fill: rgb(162, 213, 242); fill-opacity: 1;"/><path class="point" transform="translate(597.13,126.39)" d="M3,0A3,3 0 1,1 0,-3A3,3 0 0,1 3,0Z" style="opacity: 1; stroke-width: 0px; fill: rgb(162, 213, 242); fill-opacity: 1;"/><path class="point" transform="translate(643.07,84.45)" d="M3,0A3,3 0 1,1 0,-3A3,3 0 0,1 3,0Z" style="opacity: 1; stroke-width: 0px; fill: rgb(162, 213, 242); fill-opacity: 1;"/><path class="point" transform="translate(689,17.5)" d="M3,0A3,3 0 1,1 0,-3A3,3 0 0,1 3,0Z" style="opacity: 1; stroke-width: 0px; fill: rgb(162, 213, 242); fill-opacity: 1;"/></g><g class="text"/></g><g class="trace scatter trace52e1566a-3b74-4c18-bd9b-0896e36bd26e" style="stroke-miterlimit: 2;"><g class="fills"><g><path class="js-fill" d="M689,275L0,275L0,274.56L183.73,273.53L229.67,273.53L367.47,273.09L413.4,272.5L551.2,271.32L597.13,269.56L643.07,268.38L689,263.23" style="fill: rgb(252, 123, 101); fill-opacity: 1; stroke-width: 0;"/></g></g><g class="errorbars"/><g class="lines"><path class="js-line" d="M0,274.56L183.73,273.53L229.67,273.53L367.47,273.09L413.4,272.5L551.2,271.32L597.13,269.56L643.07,268.38L689,263.23" style="vector-effect: non-scaling-stroke; fill: none; stroke: rgb(252, 123, 101); stroke-opacity: 1; stroke-width: 2px; opacity: 1;"/></g><g class="points"><path class="point" transform="translate(0,274.56)" d="M3,0A3,3 0 1,1 0,-3A3,3 0 0,1 3,0Z" style="opacity: 1; stroke-width: 0px; fill: rgb(252, 123, 101); fill-opacity: 1;"/><path class="point" transform="translate(45.93,274.26)" d="M3,0A3,3 0 1,1 0,-3A3,3 0 0,1 3,0Z" style="opacity: 1; stroke-width: 0px; fill: rgb(252, 123, 101); fill-opacity: 1;"/><path class="point" transform="translate(91.87,273.53)" d="M3,0A3,3 0 1,1 0,-3A3,3 0 0,1 3,0Z" style="opacity: 1; stroke-width: 0px; fill: rgb(252, 123, 101); fill-opacity: 1;"/><path class="point" transform="translate(137.8,273.53)" d="M3,0A3,3 0 1,1 0,-3A3,3 0 0,1 3,0Z" style="opacity: 1; stroke-width: 0px; fill: rgb(252, 123, 101); fill-opacity: 1;"/><path class="point" transform="translate(183.73,273.53)" d="M3,0A3,3 0 1,1 0,-3A3,3 0 0,1 3,0Z" style="opacity: 1; stroke-width: 0px; fill: rgb(252, 123, 101); fill-opacity: 1;"/><path class="point" transform="translate(229.67,273.53)" d="M3,0A3,3 0 1,1 0,-3A3,3 0 0,1 3,0Z" style="opacity: 1; stroke-width: 0px; fill: rgb(252, 123, 101); fill-opacity: 1;"/><path class="point" transform="translate(275.6,273.53)" d="M3,0A3,3 0 1,1 0,-3A3,3 0 0,1 3,0Z" style="opacity: 1; stroke-width: 0px; fill: rgb(252, 123, 101); fill-opacity: 1;"/><path class="point" transform="translate(321.53,273.53)" d="M3,0A3,3 0 1,1 0,-3A3,3 0 0,1 3,0Z" style="opacity: 1; stroke-width: 0px; fill: rgb(252, 123, 101); fill-opacity: 1;"/><path class="point" transform="translate(367.47,273.09)" d="M3,0A3,3 0 1,1 0,-3A3,3 0 0,1 3,0Z" style="opacity: 1; stroke-width: 0px; fill: rgb(252, 123, 101); fill-opacity: 1;"/><path class="point" transform="translate(413.4,272.5)" d="M3,0A3,3 0 1,1 0,-3A3,3 0 0,1 3,0Z" style="opacity: 1; stroke-width: 0px; fill: rgb(252, 123, 101); fill-opacity: 1;"/><path class="point" transform="translate(459.33,272.06)" d="M3,0A3,3 0 1,1 0,-3A3,3 0 0,1 3,0Z" style="opacity: 1; stroke-width: 0px; fill: rgb(252, 123, 101); fill-opacity: 1;"/><path class="point" transform="translate(505.27,271.62)" d="M3,0A3,3 0 1,1 0,-3A3,3 0 0,1 3,0Z" style="opacity: 1; stroke-width: 0px; fill: rgb(252, 123, 101); fill-opacity: 1;"/><path class="point" transform="translate(551.2,271.32)" d="M3,0A3,3 0 1,1 0,-3A3,3 0 0,1 3,0Z" style="opacity: 1; stroke-width: 0px; fill: rgb(252, 123, 101); fill-opacity: 1;"/><path class="point" transform="translate(597.13,269.56)" d="M3,0A3,3 0 1,1 0,-3A3,3 0 0,1 3,0Z" style="opacity: 1; stroke-width: 0px; fill: rgb(252, 123, 101); fill-opacity: 1;"/><path class="point" transform="translate(643.07,268.38)" d="M3,0A3,3 0 1,1 0,-3A3,3 0 0,1 3,0Z" style="opacity: 1; stroke-width: 0px; fill: rgb(252, 123, 101); fill-opacity: 1;"/><path class="point" transform="translate(689,263.23)" d="M3,0A3,3 0 1,1 0,-3A3,3 0 0,1 3,0Z" style="opacity: 1; stroke-width: 0px; fill: rgb(252, 123, 101); fill-opacity: 1;"/></g><g class="text"/></g></g></g><g class="overplot"/><path class="xlines-above crisp" d="M0,0" style="fill: none;"/><path class="ylines-above crisp" d="M0,0" style="fill: none;"/><g class="overlines-above"/><g class="xaxislayer-above"><g class="xtick"><text text-anchor="middle" x="0" y="388" transform="translate(80,0)" style="font-family: 'Open Sans', verdana, arial, sans-serif; font-size: 12px; fill: rgb(112, 108, 135); fill-opacity: 1; white-space: pre;">2010</text></g><g class="xtick"><text text-anchor="middle" x="0" y="388" transform="translate(171.87,0)" style="font-family: 'Open Sans', verdana, arial, sans-serif; font-size: 12px; fill: rgb(112, 108, 135); fill-opacity: 1; white-space: pre;">2012</text></g><g class="xtick"><text text-anchor="middle" x="0" y="388" transform="translate(263.73,0)" style="font-family: 'Open Sans', verdana, arial, sans-serif; font-size: 12px; fill: rgb(112, 108, 135); fill-opacity: 1; white-space: pre;">2014</text></g><g class="xtick"><text text-anchor="middle" x="0" y="388" transform="translate(355.6,0)" style="font-family: 'Open Sans', verdana, arial, sans-serif; font-size: 12px; fill: rgb(112, 108, 135); fill-opacity: 1; white-space: pre;">2016</text></g><g class="xtick"><text text-anchor="middle" x="0" y="388" transform="translate(447.47,0)" style="font-family: 'Open Sans', verdana, arial, sans-serif; font-size: 12px; fill: rgb(112, 108, 135); fill-opacity: 1; white-space: pre;">2018</text></g><g class="xtick"><text text-anchor="middle" x="0" y="388" transform="translate(539.3299999999999,0)" style="font-family: 'Open Sans', verdana, arial, sans-serif; font-size: 12px; fill: rgb(112, 108, 135); fill-opacity: 1; white-space: pre;">2020</text></g><g class="xtick"><text text-anchor="middle" x="0" y="388" transform="translate(631.2,0)" style="font-family: 'Open Sans', verdana, arial, sans-serif; font-size: 12px; fill: rgb(112, 108, 135); fill-opacity: 1; white-space: pre;">2022</text></g><g class="xtick"><text text-anchor="middle" x="0" y="388" transform="translate(723.07,0)" style="font-family: 'Open Sans', verdana, arial, sans-serif; font-size: 12px; fill: rgb(112, 108, 135); fill-opacity: 1; white-space: pre;">2024</text></g></g><g class="yaxislayer-above"><g class="ytick"><text text-anchor="end" x="79" y="4.199999999999999" transform="translate(0,375)" style="font-family: 'Open Sans', verdana, arial, sans-serif; font-size: 12px; fill: rgb(68, 68, 68); fill-opacity: 1; white-space: pre;">0</text></g><g class="ytick"><text text-anchor="end" x="79" y="4.199999999999999" transform="translate(0,301.43)" style="font-family: 'Open Sans', verdana, arial, sans-serif; font-size: 12px; fill: rgb(68, 68, 68); fill-opacity: 1; white-space: pre;">50</text></g><g class="ytick"><text text-anchor="end" x="79" y="4.199999999999999" transform="translate(0,227.86)" style="font-family: 'Open Sans', verdana, arial, sans-serif; font-size: 12px; fill: rgb(68, 68, 68); fill-opacity: 1; white-space: pre;">100</text></g><g class="ytick"><text text-anchor="end" x="79" y="4.199999999999999" transform="translate(0,154.29)" style="font-family: 'Open Sans', verdana, arial, sans-serif; font-size: 12px; fill: rgb(68, 68, 68); fill-opacity: 1; white-space: pre;">150</text></g></g><g class="overaxes-above"/></g></g><g class="polarlayer"/><g class="ternarylayer"/><g class="geolayer"/><g class="pielayer"/><g class="glimages"/><defs id="topdefs-a206be"><g class="clips"/><clipPath id="legenda206be"><rect width="184" height="48" x="0" y="0"/></clipPath></defs><g class="layer-above"><g class="imagelayer"/><g class="shapelayer"/></g><g class="infolayer"><g class="legend" pointer-events="all" transform="translate(782.78, 85.99999999999997)"><rect class="bg" shape-rendering="crispEdges" style="stroke: rgb(68, 68, 68); stroke-opacity: 1; fill: rgb(255, 255, 255); fill-opacity: 1; stroke-width: 0px;" width="184" height="48" x="0" y="0"/><g class="scrollbox" transform="translate(0, 0)" clip-path="url(#legenda206be)"><g class="groups"><g class="traces" transform="translate(0, 14.5)" style="opacity: 1;"><text class="legendtext user-select-none" text-anchor="start" x="40" y="4.680000000000001" style="font-family: 'Open Sans', verdana, arial, sans-serif; font-size: 12px; fill: rgb(68, 68, 68); fill-opacity: 1; white-space: pre;">data analyzed</text><rect class="legendtoggle" pointer-events="all" style="cursor: pointer; fill: rgb(0, 0, 0); fill-opacity: 0;" x="0" y="-9.5" width="224" height="19"/><g class="layers"><g class="legendfill"><path class="js-fill" d="M5,0h30v6h-30z" style="stroke-width: 0; fill: rgb(252, 123, 101); fill-opacity: 1;"/></g><g class="legendlines"><path class="js-line" d="M5,0h30" style="fill: none; stroke: rgb(252, 123, 101); stroke-opacity: 1; stroke-width: 2px;"/></g><g class="legendsymbols"><g class="legendpoints"><path class="scatterpts" transform="translate(20,0)" d="M3,0A3,3 0 1,1 0,-3A3,3 0 0,1 3,0Z" style="opacity: 1; stroke-width: 0px; fill: rgb(252, 123, 101); fill-opacity: 1;"/></g></g></g></g><g class="traces" transform="translate(0, 33.5)" style="opacity: 1;"><text class="legendtext user-select-none" text-anchor="start" x="40" y="4.680000000000001" style="font-family: 'Open Sans', verdana, arial, sans-serif; font-size: 12px; fill: rgb(68, 68, 68); fill-opacity: 1; white-space: pre;">data created or available</text><rect class="legendtoggle" pointer-events="all" x="0" y="-9.5" width="224" height="19" style="cursor: pointer; fill: rgb(0, 0, 0); fill-opacity: 0;"/><g class="layers"><g class="legendfill"><path class="js-fill" d="M5,0h30v6h-30z" style="stroke-width: 0; fill: rgb(162, 213, 242); fill-opacity: 0.5;"/></g><g class="legendlines"><path class="js-line" d="M5,0h30" style="fill: none; stroke: rgb(162, 213, 242); stroke-opacity: 1; stroke-width: 2px;"/></g><g class="legendsymbols"><g class="legendpoints"><path class="scatterpts" transform="translate(20,0)" d="M3,0A3,3 0 1,1 0,-3A3,3 0 0,1 3,0Z" style="opacity: 1; stroke-width: 0px; fill: rgb(162, 213, 242); fill-opacity: 1;"/></g></g></g></g></g></g><rect class="scrollbar" rx="20" ry="3" width="0" height="0" style="fill: rgb(128, 139, 164); fill-opacity: 1;" x="0" y="0"/></g><g class="g-gtitle"><text class="gtitle" x="489.5" y="50" text-anchor="middle" dy="0em" style="font-family: 'Open Sans', verdana, arial, sans-serif; font-size: 17px; fill: rgb(68, 68, 68); opacity: 1; font-weight: normal; white-space: pre;">Global data stored or created vs global data analyzed</text></g><g class="g-xtitle"><text class="xtitle" x="424.5" y="427" text-anchor="middle" style="font-family: 'Open Sans', verdana, arial, sans-serif; font-size: 14px; fill: rgb(112, 108, 135); opacity: 1; font-weight: normal; white-space: pre;">Year</text></g><g class="g-ytitle"><text class="ytitle" transform="rotate(-90,42,237.5)" x="42" y="237.5" text-anchor="middle" style="font-family: 'Open Sans', verdana, arial, sans-serif; font-size: 14px; fill: rgb(112, 108, 135); opacity: 1; font-weight: normal; white-space: pre;">Size (in zetabytes)</text></g></g></svg>